# xmcd CD database file
#
# Track frame offsets:
#	150
#	17544
#	40200
#	56257
#	73496
#	92927
#	109471
#	123578
#	138583
#	154791
#	170247
#	191476
#
# Disc length: 2646 seconds
#
# Revision: 5
# Processed by: cddbd v1.5.2PL0 Copyright (c) Steve Scherf et al.
# Submitted via: Feurio! 1.68 - http://www.feurio.com
#
DISCID=b20a540c
DTITLE=Daily Blues - For Plauschi
DYEAR=1900
DGENRE=blues
TTITLE0=Don't Lose Your Cool
TTITLE1=Put the Shoe on the Other Foot
TTITLE2=Calm Down Baby
TTITLE3=Come On
TTITLE4=Empty Arms
TTITLE5=Little Girl
TTITLE6=Mardi Gras
TTITLE7=So What
TTITLE8=Reconsider Baby
TTITLE9=T-Bone Shuffle
TTITLE10=Chitlins con carne
TTITLE11=For Plauschi
EXTD=
EXTT0=
EXTT1=
EXTT2=
EXTT3=
EXTT4=
EXTT5=
EXTT6=
EXTT7=
EXTT8=
EXTT9=
EXTT10=
EXTT11=
PLAYORDER=
